<svg id="Capa_1" enable-background="new 0 0 510 510" height="512" viewBox="0 0 510 510" width="512" xmlns="http://www.w3.org/2000/svg" xmlns:xlink="http://www.w3.org/1999/xlink"><linearGradient id="lg1"><stop offset="0" stop-color="#e6f6df"/><stop offset=".5213" stop-color="#c1e9af"/><stop offset="1" stop-color="#80d261"/></linearGradient><linearGradient id="SVGID_1_" gradientUnits="userSpaceOnUse" x1="428.565" x2="501.116" xlink:href="#lg1" y1="118.281" y2="190.831"/><linearGradient id="SVGID_2_" gradientUnits="userSpaceOnUse" x1="-2.865" x2="138.718" xlink:href="#lg1" y1="146.625" y2="195.746"/><linearGradient id="lg2"><stop offset="0" stop-color="#81b823" stop-opacity="0"/><stop offset="1" stop-color="#037e73"/></linearGradient><linearGradient id="SVGID_3_" gradientUnits="userSpaceOnUse" x1="41.463" x2="72.858" xlink:href="#lg2" y1="167.317" y2="198.711"/><linearGradient id="lg3"><stop offset="0" stop-color="#a2e62e"/><stop offset=".5278" stop-color="#81b823"/><stop offset="1" stop-color="#037e73"/></linearGradient><linearGradient id="SVGID_4_" gradientUnits="userSpaceOnUse" x1="67.332" x2="93.837" xlink:href="#lg3" y1="444.44" y2="517.506"/><linearGradient id="SVGID_5_" gradientUnits="userSpaceOnUse" x1="95.699" x2="124.197" xlink:href="#lg2" y1="494.988" y2="471.137"/><linearGradient id="SVGID_6_" gradientUnits="userSpaceOnUse" x1="112.872" x2="202.725" xlink:href="#lg1" y1="395.729" y2="485.582"/><linearGradient id="SVGID_7_" gradientUnits="userSpaceOnUse" x1="109.299" x2="109.299" xlink:href="#lg2" y1="454.137" y2="405.305"/><linearGradient id="SVGID_8_" gradientTransform="matrix(-1 0 0 1 597.029 -314)" gradientUnits="userSpaceOnUse" x1="154.361" x2="180.865" xlink:href="#lg3" y1="758.44" y2="831.506"/><linearGradient id="SVGID_9_" gradientTransform="matrix(-1 0 0 1 597.029 -314)" gradientUnits="userSpaceOnUse" x1="182.728" x2="211.226" xlink:href="#lg2" y1="808.988" y2="785.137"/><linearGradient id="SVGID_10_" gradientTransform="matrix(-1 0 0 1 597.029 -314)" gradientUnits="userSpaceOnUse" x1="199.901" x2="289.754" xlink:href="#lg1" y1="709.729" y2="799.581"/><linearGradient id="SVGID_11_" gradientTransform="matrix(-1 0 0 1 597.029 -314)" gradientUnits="userSpaceOnUse" x1="196.328" x2="196.328" xlink:href="#lg2" y1="768.137" y2="719.305"/><linearGradient id="SVGID_12_" gradientUnits="userSpaceOnUse" x1="466.326" x2="433.579" xlink:href="#lg2" y1="166.179" y2="202.779"/><linearGradient id="SVGID_13_" gradientUnits="userSpaceOnUse" x1="255" x2="255" xlink:href="#lg3" y1="12.05" y2="423.176"/><linearGradient id="SVGID_14_" gradientUnits="userSpaceOnUse" x1="135.261" x2="419.094" xlink:href="#lg3" y1="232.92" y2="516.753"/><linearGradient id="SVGID_15_" gradientUnits="userSpaceOnUse" x1="332.78" x2="274.027" xlink:href="#lg2" y1="463.909" y2="289.579"/><linearGradient id="SVGID_16_" gradientUnits="userSpaceOnUse" x1="65.195" x2="401.69" xlink:href="#lg3" y1="58.458" y2="394.953"/><linearGradient id="SVGID_17_" gradientUnits="userSpaceOnUse" x1="346.444" x2="4.462" xlink:href="#lg2" y1="199.959" y2="94.964"/><linearGradient id="SVGID_18_" gradientUnits="userSpaceOnUse" x1="143.46" x2="193.303" xlink:href="#lg2" y1="115.68" y2="146.019"/><linearGradient id="SVGID_19_" gradientUnits="userSpaceOnUse" x1="369.518" x2="324.731" xlink:href="#lg2" y1="114.648" y2="137.763"/><linearGradient id="SVGID_20_" gradientUnits="userSpaceOnUse" x1="255" x2="255" xlink:href="#lg2" y1="366.009" y2="445.797"/><linearGradient id="SVGID_21_" gradientUnits="userSpaceOnUse" x1="255" x2="255" xlink:href="#lg2" y1="276.436" y2="340.069"/><g><path d="m469.582 219.369 23.383-113.838c1.21-5.892-5.973-9.76-10.226-5.507l-76.725 76.725z" fill="url(#SVGID_1_)"/><g><path d="m40.418 219.369-23.382-113.838c-1.21-5.892 5.973-9.76 10.226-5.507l76.725 76.725z" fill="url(#SVGID_2_)"/><path d="m103.983 176.749-63.569 42.62-16.137-78.564 26.005-17.771z" fill="url(#SVGID_3_)"/></g><g><path d="m158.814 509.253-143.544-27.227c-4.435-.841-4.808-7.049-.505-8.414l104.229-33.079z" fill="url(#SVGID_4_)"/><path d="m57.155 460.158 27.172 34.966 74.487 14.129-39.82-68.72z" fill="url(#SVGID_5_)"/><g><path d="m139.75 354.422 30.029 146.194c1.554 7.566-7.67 12.534-13.132 7.072l-98.533-98.533z" fill="url(#SVGID_6_)"/><path d="m58.119 409.155 81.636-54.733 20.724 100.895-33.396 22.821z" fill="url(#SVGID_7_)"/></g></g><g><path d="m351.186 509.253 143.544-27.228c4.435-.841 4.808-7.049.505-8.414l-104.229-33.079z" fill="url(#SVGID_8_)"/><path d="m452.845 460.158-27.172 34.966-74.487 14.129 39.82-68.72z" fill="url(#SVGID_9_)"/><g><path d="m370.25 354.422-30.029 146.194c-1.554 7.566 7.67 12.534 13.132 7.072l98.533-98.533z" fill="url(#SVGID_10_)"/><path d="m451.881 409.155-81.636-54.733-20.724 100.895 33.396 22.821z" fill="url(#SVGID_11_)"/></g></g><path d="m485.723 140.805-16.137 78.564-63.569-42.62 53.701-53.715z" fill="url(#SVGID_12_)"/><path d="m240.657 8.971-197.598 200.848c-4.936 5.017-3.637 13.375 2.589 16.657l209.352 110.384 209.352-110.384c6.226-3.283 7.525-11.64 2.589-16.657l-197.598-200.848c-7.883-8.013-20.803-8.013-28.686 0z" fill="url(#SVGID_13_)"/><path d="m255 170.97-227.382 155.846c-3.848 2.637-5.23 7.666-3.27 11.899l30.245 65.338c3.126 6.754 9.891 11.077 17.334 11.077h366.147c7.442 0 14.207-4.323 17.334-11.077l30.245-65.338c1.959-4.233.577-9.262-3.27-11.899z" fill="url(#SVGID_14_)"/><path d="m482.382 326.816-227.382-155.846-121.151 83.036-40.659 85.998 75.126 75.126h269.757c7.443 0 14.207-4.323 17.334-11.077l30.245-65.338c1.959-4.233.578-9.262-3.27-11.899z" fill="url(#SVGID_15_)"/><path d="m243.202 7.369-153.453 314.304c-5.12 10.487 2.516 22.713 14.186 22.713h302.13c11.67 0 19.306-12.226 14.186-22.713l-153.453-314.304c-4.797-9.825-18.799-9.825-23.596 0z" fill="url(#SVGID_16_)"/><path d="m406.065 344.386c11.67 0 19.306-12.226 14.186-22.713l-153.453-314.304c-2.398-4.913-7.098-7.369-11.798-7.369v344.386z" fill="url(#SVGID_17_)"/><g><path d="m243.202 7.369c.171-.351.379-.661.573-.987-1.103.743-2.149 1.604-3.118 2.589l-197.598 200.848c-4.936 5.017-3.637 13.374 2.589 16.657l72.035 37.981z" fill="url(#SVGID_18_)"/><path d="m466.941 209.819-197.598-200.848c-.969-.985-2.015-1.846-3.118-2.589.194.326.402.636.573.987l125.519 257.089 72.035-37.981c6.226-3.283 7.525-11.64 2.589-16.658z" fill="url(#SVGID_19_)"/></g><path d="m34.976 361.675 19.617 42.378c3.126 6.754 9.891 11.077 17.334 11.077h366.147c7.443 0 14.207-4.323 17.334-11.077l19.617-42.378z" fill="url(#SVGID_20_)"/><path d="m89.749 321.673c-5.12 10.487 2.516 22.713 14.186 22.713h302.13c11.67 0 19.306-12.226 14.186-22.713l-38.309-78.466h-253.884z" fill="url(#SVGID_21_)"/></g></svg>